<?xml version="1.0" encoding="UTF-8" standalone="no"?>
<!-- Created with Inkscape (http://www.inkscape.org/) -->

<svg
   width="552.15002mm"
   height="359.61047mm"
   viewBox="0 0 552.15002 359.61047"
   version="1.1"
   id="svg1"
   xml:space="preserve"
   xmlns:inkscape="http://www.inkscape.org/namespaces/inkscape"
   xmlns:sodipodi="http://sodipodi.sourceforge.net/DTD/sodipodi-0.dtd"
   xmlns="http://www.w3.org/2000/svg"
   xmlns:svg="http://www.w3.org/2000/svg"><sodipodi:namedview
     id="namedview1"
     pagecolor="#505050"
     bordercolor="#eeeeee"
     borderopacity="1"
     inkscape:showpageshadow="0"
     inkscape:pageopacity="0"
     inkscape:pagecheckerboard="0"
     inkscape:deskcolor="#d1d1d1"
     inkscape:document-units="mm"
     inkscape:zoom="0.13212744"
     inkscape:cx="-1521.2586"
     inkscape:cy="-526.00733"
     inkscape:window-width="1920"
     inkscape:window-height="1017"
     inkscape:window-x="-8"
     inkscape:window-y="-8"
     inkscape:window-maximized="1"
     inkscape:current-layer="layer1" /><defs
     id="defs1" /><g
     inkscape:label="Layer 1"
     inkscape:groupmode="layer"
     id="layer1"
     transform="translate(374.01399,351.22728)"><g
       id="g60"><circle
         style="fill:#dec200;fill-opacity:1;stroke-width:0.424236;stroke-linecap:round;paint-order:stroke fill markers"
         id="path60"
         cx="-37.522404"
         cy="-171.42207"
         r="179.80522" /><rect
         style="fill:#00b455;fill-opacity:1;stroke-width:0.563705;stroke-linecap:round;paint-order:stroke fill markers"
         id="rect59"
         width="121.21399"
         height="12.844257"
         x="-320.79071"
         y="-218.5916"
         ry="6.4221287" /><rect
         style="fill:#00b455;fill-opacity:1;stroke-width:0.546444;stroke-linecap:round;paint-order:stroke fill markers"
         id="rect59-9"
         width="113.90453"
         height="12.844257"
         x="-374.01401"
         y="-82.091881"
         ry="6.4221287" /><rect
         style="fill:#00b455;fill-opacity:1;stroke-width:0.469731;stroke-linecap:round;paint-order:stroke fill markers"
         id="rect59-8"
         width="84.167999"
         height="12.844257"
         x="-344.35172"
         y="-182.51645"
         ry="6.4221287" /><rect
         style="fill:#00b455;fill-opacity:1;stroke-width:0.425765;stroke-linecap:round;paint-order:stroke fill markers"
         id="rect59-8-3"
         width="69.149353"
         height="12.844257"
         x="-351.63641"
         y="-125.34017"
         ry="6.4221287" /><path
         style="fill:#00b455;fill-opacity:1;stroke-width:2.73679"
         d="m -183.09988,-36.505494 c -33.45502,-17.228047 -30.58219,-67.869906 4.61002,-81.264176 36.88705,-14.03929 72.09731,21.170964 58.05799,58.058022 -9.3864,24.661934 -38.73601,35.530193 -62.66801,23.206154 z m 35.07147,-25.610452 c 3.85787,-3.857861 7.01429,-10.170733 7.01429,-14.028594 0,-9.032857 -12.00999,-21.04285 -21.04288,-21.04285 -9.03286,0 -21.04288,12.009993 -21.04288,21.04285 0,3.857861 3.15645,10.170733 7.01431,14.028594 3.85786,3.857862 10.17071,7.014284 14.02857,7.014284 3.85786,0 10.17073,-3.156422 14.02859,-7.014284 z m 217.442972,25.610452 c -33.455025,-17.228047 -30.582184,-67.869906 4.609996,-81.264176 26.156392,-9.95518 55.422782,5.7743 60.432842,32.480228 7.01741,37.405981 -31.31191,66.154053 -65.042838,48.783948 z m 35.071448,-25.610452 c 3.85786,-3.857861 7.01429,-10.170733 7.01429,-14.028594 0,-3.857861 -3.15643,-10.170705 -7.01429,-14.028567 -3.85786,-3.857861 -10.17072,-7.014283 -14.028579,-7.014283 -3.857859,0 -10.170719,3.156422 -14.028581,7.014283 -3.857858,3.857862 -7.014288,10.170706 -7.014288,14.028567 0,3.857861 3.15643,10.170733 7.014288,14.028594 3.857862,3.857862 10.170722,7.014284 14.028581,7.014284 3.857859,0 10.170719,-3.156422 14.028579,-7.014284 z m -348.04006,-8.997197 c -15.02427,-8.152076 -20.21015,-22.066628 -20.21015,-54.227027 0,-26.82503 0.60286,-29.10399 10.25166,-38.75276 9.00505,-9.00505 12.75812,-10.25166 30.86406,-10.25166 h 20.61241 l 26.9898,-31.40275 c 20.99715,-24.43028 29.54759,-31.88259 38.50978,-33.56391 6.33603,-1.18864 37.626048,-1.65589 69.533408,-1.03834 l 58.0133798,1.12283 39.2991392,32.55926 39.299144,32.55926 46.372659,8.53829 c 58.61281,10.79196 62.15481,13.816 62.15481,53.06576 0,24.478205 -0.73827,27.11606 -10.25165,36.629443 -14.76072,14.760713 -20.05133,13.348775 -22.22446,-5.931144 -1.95761,-17.367861 -9.52193,-29.920639 -24.98888,-41.468389 -13.58033,-10.13918 -46.846933,-10.13918 -60.427263,0 -15.466949,11.54775 -23.031262,24.100528 -24.988874,41.468389 l -1.824035,16.182804 h -69.230678 -69.23066 l -1.82404,-16.182804 c -1.9576,-17.367861 -9.52193,-29.920639 -24.98887,-41.468389 -13.58033,-10.13918 -46.84695,-10.13918 -60.42728,0 -15.46696,11.54775 -23.03128,24.100528 -24.98888,41.468389 -1.53712,13.637343 -2.9935,16.160718 -9.259,16.042379 -4.08923,-0.07718 -11.75522,-2.484568 -17.03553,-5.349631 z m 195.479264,-75.174287 c 0,-7.81093 -1.630278,-8.88573 -14.937454,-9.84787 -15.692645,-1.13459 -21.382596,3.98003 -17.034165,15.31182 1.543878,4.02327 6.035252,5.17918 17.034165,4.38393 13.307176,-0.96215 14.937454,-2.03694 14.937454,-9.84788 z m -63.128604,-50.47136 c 0,-22.89177 -4.90994,-29.2969 -19.62328,-25.59903 -9.61347,2.41615 -42.77329,40.01589 -39.69016,45.00449 1.11596,1.80565 14.918,2.82674 30.67121,2.2691 l 28.64223,-1.01393 z m 142.019705,18.03027 c -0.01067,-2.41116 -11.773969,-13.45865 -26.1403489,-24.55002 L -21.444752,-223.4446 h -27.518943 c -16.727452,0 -29.169365,1.65037 -31.727552,4.20855 -4.410611,4.41064 -5.90966,38.51417 -1.870459,42.55337 1.285935,1.28596 27.326492,2.33809 57.867892,2.33809 42.09621,0 55.525028,-1.06053 55.510129,-4.38393 z"
         id="path59" /><path
         d="m -31.338233,-81.617104 v -7.090811 q 5.079984,-0.740831 8.678306,-2.645825 3.598322,-1.904994 5.926648,-4.656652 2.434159,-2.751658 3.492489,-6.244148 1.164163,-3.59832 1.164163,-7.61997 0,-4.44499 -1.481662,-7.93748 -1.481662,-3.49249 -4.127487,-5.92665 -2.539992,-2.53999 -6.032481,-4.02165 -3.492489,-1.5875 -7.619976,-2.22249 v -28.04575 q 1.481662,0.21167 2.963324,0.635 1.587495,0.42333 2.857491,1.05833 1.269996,0.52916 2.010827,1.16416 0.846664,0.52917 0.846664,1.05833 0,0.84667 -0.846664,1.27 -2.751658,1.37583 -2.751658,4.55082 0,2.11666 1.481662,3.38665 1.481662,1.27 3.598322,1.27 2.645825,0 3.915821,-1.5875 1.375829,-1.58749 1.375829,-3.91582 0,-3.28082 -3.809988,-6.24414 -3.704155,-2.96333 -11.64163,-4.33916 v -7.30247 h -1.693328 v 7.19664 q -0.952497,-0.21167 -2.010827,-0.21167 -0.952497,0 -2.010827,0 -2.963324,0 -4.974151,0.3175 v -7.30247 h -1.693328 v 7.61997 q -8.254974,2.01083 -12.911626,7.40831 -4.656652,5.39748 -4.656652,12.69996 0,7.30248 4.550819,12.4883 4.656652,5.07998 13.017459,6.24414 v 29.844908 q -2.434159,-0.317499 -4.656652,-0.952497 -2.222493,-0.740831 -4.021654,-1.481662 -1.693328,-0.846664 -2.751658,-1.693328 -1.05833,-0.952497 -1.05833,-1.693328 0,-0.529165 1.164163,-1.05833 1.164163,-0.529165 1.904994,-1.693328 0.846664,-1.269995 0.846664,-2.751655 0,-1.69333 -1.269996,-3.06916 -1.269996,-1.48166 -3.598322,-1.48166 -2.010827,0 -3.386656,1.37583 -1.375829,1.37583 -1.375829,3.70415 0,2.434161 1.481662,4.550821 1.481662,2.010827 4.021654,3.598322 2.539992,1.587495 5.820815,2.751658 3.280823,1.05833 6.879145,1.693328 v 7.302477 h 1.693328 v -7.090811 q 2.645825,0.317499 5.079984,0.317499 0.952497,0 1.904994,0 0.952497,0 2.010827,-0.211666 v 6.984978 z m -1.693328,-37.570716 v 28.786577 q -2.222493,0.317499 -4.339153,0.317499 -1.164163,0 -2.222493,-0.105833 -0.952497,-0.105833 -2.434159,-0.317499 v -29.739074 q 2.010827,0.3175 4.23332,0.52917 2.222493,0.21166 4.762485,0.52916 z m 1.693328,0.10583 q 8.043308,1.48167 11.429964,4.65666 3.386656,3.17499 3.386656,8.88997 0,3.80999 -1.375829,6.455811 -1.375829,2.645825 -3.492489,4.444986 -2.11666,1.693328 -4.762485,2.645825 -2.645825,0.952497 -5.185817,1.269996 z m -1.693328,-39.05237 v 27.93991 q -2.222493,-0.42333 -4.762485,-0.52917 -2.434159,-0.21166 -4.23332,-0.52916 v -26.66992 q 1.164163,-0.21166 2.434159,-0.3175 1.269996,-0.10583 2.645825,-0.10583 1.05833,0 2.010827,0.10583 1.05833,0 1.904994,0.10584 z m -10.689133,0.635 v 26.03491 q -6.879145,-1.48166 -9.948302,-4.12748 -2.963324,-2.75166 -2.963324,-7.40831 0,-5.18582 3.386656,-9.10164 3.492489,-4.02166 9.52497,-5.39748 z"
         id="text3-9-1"
         style="font-weight:500;font-size:105.833px;line-height:1.25;font-family:BodoniFLF;-inkscape-font-specification:'BodoniFLF, Medium';fill:#dec200;stroke:#dec200;stroke-width:2.64583;stroke-dasharray:none;stroke-opacity:1"
         transform="matrix(0.96879145,0,-0.37299578,1.0322139,0,0)"
         aria-label="$" /></g></g></svg>
